<svg xmlns="http://www.w3.org/2000/svg" width="512" height="512" viewBox="0 0 512 512"><title>github</title><path d="M256 0C114.56 0 0 114.56 0 256c0 113.28 73.28 209 175 242.88 12.8 2.24 17.6-5.44 17.6-12.16 0-6.08-.32-26.24-.32-47.68-64.32 11.84-81-15.68-86.08-30.08-2.84-7.36-15.32-30.08-26.2-36.16-9-4.8-21.76-16.64-.32-17 20.16-.32 34.56 18.56 39.36 26.24 23 38.72 59.84 27.84 74.56 21.12 2.24-16.64 9-27.84 16.32-34.24-57-6.4-116.48-28.48-116.48-126.4 0-27.84 9.92-50.88 26.24-68.8-2.56-6.4-11.52-32.64 2.56-67.84 0 0 21.44-6.72 70.4 26.24a241.36 241.36 0 0 1 128 0c49-33.28 70.4-26.24 70.4-26.24 14.08 35.2 5.12 61.44 2.56 67.84 16.32 17.92 26.24 40.64 26.24 68.8 0 98.24-59.84 120-116.8 126.4 9.28 8 17.28 23.36 17.28 47.36 0 34.24-.32 61.76-.32 70.4 0 6.72 4.8 14.72 17.6 12.16A256.42 256.42 0 0 0 512 256C512 114.56 397.44 0 256 0z"/></svg>